<svg xmlns="http://www.w3.org/2000/svg" xmlns:xlink="http://www.w3.org/1999/xlink" viewBox="-10240 -1007 1280 34.36">
  <defs>
    <style>
      .cls-1 {
        clip-path: url(#clip-iPhone_6_7_2);
      }

      .cls-2 {
        fill: none;
        stroke: #242424;
        stroke-width: 3px;
      }
    </style>
    <clipPath id="clip-iPhone_6_7_2">
      <rect x="-10240" y="-1007" width="1280" height="34.36"/>
    </clipPath>
  </defs>
  <g id="iPhone_6_7_2" data-name="iPhone 6/7 – 2" class="cls-1">
    <g id="グループ化_74" data-name="グループ化 74" transform="translate(-10330 -4282)">
      <g id="グループ化_41" data-name="グループ化 41" transform="translate(-81 113)">
        <g id="グループ化_2" data-name="グループ化 2" transform="translate(-68.836 3158.5)">
          <line id="線_7" data-name="線 7" class="cls-2" x1="67.429" y1="95.062" transform="translate(0)"/>
          <line id="線_7-2" data-name="線 7" class="cls-2" x1="67.429" y1="95.062" transform="translate(12.643)"/>
          <line id="線_7-3" data-name="線 7" class="cls-2" x1="67.429" y1="95.062" transform="translate(25.286)"/>
          <line id="線_7-4" data-name="線 7" class="cls-2" x1="67.429" y1="95.062" transform="translate(37.929)"/>
          <line id="線_7-5" data-name="線 7" class="cls-2" x1="67.429" y1="95.062" transform="translate(50.572)"/>
          <line id="線_7-6" data-name="線 7" class="cls-2" x1="67.429" y1="95.062" transform="translate(63.215)"/>
          <line id="線_7-7" data-name="線 7" class="cls-2" x1="67.429" y1="95.062" transform="translate(75.858)"/>
          <line id="線_7-8" data-name="線 7" class="cls-2" x1="67.429" y1="95.062" transform="translate(88.501)"/>
          <line id="線_7-9" data-name="線 7" class="cls-2" x1="67.429" y1="95.062" transform="translate(101.144)"/>
          <line id="線_7-10" data-name="線 7" class="cls-2" x1="67.429" y1="95.062" transform="translate(113.787)"/>
          <line id="線_7-11" data-name="線 7" class="cls-2" x1="67.429" y1="95.062" transform="translate(126.43)"/>
          <line id="線_7-12" data-name="線 7" class="cls-2" x1="67.429" y1="95.062" transform="translate(139.073)"/>
          <line id="線_7-13" data-name="線 7" class="cls-2" x1="67.429" y1="95.062" transform="translate(151.716)"/>
          <line id="線_7-14" data-name="線 7" class="cls-2" x1="67.429" y1="95.062" transform="translate(164.359)"/>
          <line id="線_7-15" data-name="線 7" class="cls-2" x1="67.429" y1="95.062" transform="translate(177.002)"/>
          <line id="線_7-16" data-name="線 7" class="cls-2" x1="67.429" y1="95.062" transform="translate(189.645)"/>
          <line id="線_7-17" data-name="線 7" class="cls-2" x1="67.429" y1="95.062" transform="translate(202.287)"/>
          <line id="線_7-18" data-name="線 7" class="cls-2" x1="67.429" y1="95.062" transform="translate(214.93)"/>
          <line id="線_7-19" data-name="線 7" class="cls-2" x1="67.429" y1="95.062" transform="translate(227.573)"/>
          <line id="線_7-20" data-name="線 7" class="cls-2" x1="67.429" y1="95.062" transform="translate(240.216)"/>
          <line id="線_7-21" data-name="線 7" class="cls-2" x1="67.429" y1="95.062" transform="translate(252.859)"/>
          <line id="線_7-22" data-name="線 7" class="cls-2" x1="67.429" y1="95.062" transform="translate(265.502)"/>
          <line id="線_7-23" data-name="線 7" class="cls-2" x1="67.429" y1="95.062" transform="translate(278.145)"/>
          <line id="線_7-24" data-name="線 7" class="cls-2" x1="67.429" y1="95.062" transform="translate(290.788)"/>
          <line id="線_7-25" data-name="線 7" class="cls-2" x1="67.429" y1="95.062" transform="translate(303.431)"/>
          <line id="線_7-26" data-name="線 7" class="cls-2" x1="67.429" y1="95.062" transform="translate(316.074)"/>
          <line id="線_7-27" data-name="線 7" class="cls-2" x1="67.429" y1="95.062" transform="translate(328.717)"/>
          <line id="線_7-28" data-name="線 7" class="cls-2" x1="67.429" y1="95.062" transform="translate(341.36)"/>
          <line id="線_7-29" data-name="線 7" class="cls-2" x1="67.429" y1="95.062" transform="translate(354.003)"/>
          <line id="線_7-30" data-name="線 7" class="cls-2" x1="67.429" y1="95.062" transform="translate(366.646)"/>
          <line id="線_7-31" data-name="線 7" class="cls-2" x1="67.429" y1="95.062" transform="translate(379.289)"/>
          <line id="線_7-32" data-name="線 7" class="cls-2" x1="67.429" y1="95.062" transform="translate(391.932)"/>
          <line id="線_7-33" data-name="線 7" class="cls-2" x1="67.429" y1="95.062" transform="translate(404.575)"/>
        </g>
        <g id="グループ化_2-2" data-name="グループ化 2" transform="translate(349.164 3158.5)">
          <line id="線_7-34" data-name="線 7" class="cls-2" x1="67.429" y1="95.062" transform="translate(0)"/>
          <line id="線_7-35" data-name="線 7" class="cls-2" x1="67.429" y1="95.062" transform="translate(12.643)"/>
          <line id="線_7-36" data-name="線 7" class="cls-2" x1="67.429" y1="95.062" transform="translate(25.286)"/>
          <line id="線_7-37" data-name="線 7" class="cls-2" x1="67.429" y1="95.062" transform="translate(37.929)"/>
          <line id="線_7-38" data-name="線 7" class="cls-2" x1="67.429" y1="95.062" transform="translate(50.572)"/>
          <line id="線_7-39" data-name="線 7" class="cls-2" x1="67.429" y1="95.062" transform="translate(63.215)"/>
          <line id="線_7-40" data-name="線 7" class="cls-2" x1="67.429" y1="95.062" transform="translate(75.858)"/>
          <line id="線_7-41" data-name="線 7" class="cls-2" x1="67.429" y1="95.062" transform="translate(88.501)"/>
          <line id="線_7-42" data-name="線 7" class="cls-2" x1="67.429" y1="95.062" transform="translate(101.144)"/>
          <line id="線_7-43" data-name="線 7" class="cls-2" x1="67.429" y1="95.062" transform="translate(113.787)"/>
          <line id="線_7-44" data-name="線 7" class="cls-2" x1="67.429" y1="95.062" transform="translate(126.43)"/>
          <line id="線_7-45" data-name="線 7" class="cls-2" x1="67.429" y1="95.062" transform="translate(139.073)"/>
          <line id="線_7-46" data-name="線 7" class="cls-2" x1="67.429" y1="95.062" transform="translate(151.716)"/>
          <line id="線_7-47" data-name="線 7" class="cls-2" x1="67.429" y1="95.062" transform="translate(164.359)"/>
          <line id="線_7-48" data-name="線 7" class="cls-2" x1="67.429" y1="95.062" transform="translate(177.002)"/>
          <line id="線_7-49" data-name="線 7" class="cls-2" x1="67.429" y1="95.062" transform="translate(189.645)"/>
          <line id="線_7-50" data-name="線 7" class="cls-2" x1="67.429" y1="95.062" transform="translate(202.287)"/>
          <line id="線_7-51" data-name="線 7" class="cls-2" x1="67.429" y1="95.062" transform="translate(214.93)"/>
          <line id="線_7-52" data-name="線 7" class="cls-2" x1="67.429" y1="95.062" transform="translate(227.573)"/>
          <line id="線_7-53" data-name="線 7" class="cls-2" x1="67.429" y1="95.062" transform="translate(240.216)"/>
          <line id="線_7-54" data-name="線 7" class="cls-2" x1="67.429" y1="95.062" transform="translate(252.859)"/>
          <line id="線_7-55" data-name="線 7" class="cls-2" x1="67.429" y1="95.062" transform="translate(265.502)"/>
          <line id="線_7-56" data-name="線 7" class="cls-2" x1="67.429" y1="95.062" transform="translate(278.145)"/>
          <line id="線_7-57" data-name="線 7" class="cls-2" x1="67.429" y1="95.062" transform="translate(290.788)"/>
          <line id="線_7-58" data-name="線 7" class="cls-2" x1="67.429" y1="95.062" transform="translate(303.431)"/>
          <line id="線_7-59" data-name="線 7" class="cls-2" x1="67.429" y1="95.062" transform="translate(316.074)"/>
          <line id="線_7-60" data-name="線 7" class="cls-2" x1="67.429" y1="95.062" transform="translate(328.717)"/>
          <line id="線_7-61" data-name="線 7" class="cls-2" x1="67.429" y1="95.062" transform="translate(341.36)"/>
          <line id="線_7-62" data-name="線 7" class="cls-2" x1="67.429" y1="95.062" transform="translate(354.003)"/>
          <line id="線_7-63" data-name="線 7" class="cls-2" x1="67.429" y1="95.062" transform="translate(366.646)"/>
          <line id="線_7-64" data-name="線 7" class="cls-2" x1="67.429" y1="95.062" transform="translate(379.289)"/>
          <line id="線_7-65" data-name="線 7" class="cls-2" x1="67.429" y1="95.062" transform="translate(391.932)"/>
          <line id="線_7-66" data-name="線 7" class="cls-2" x1="67.429" y1="95.062" transform="translate(404.575)"/>
        </g>
        <g id="グループ化_2-3" data-name="グループ化 2" transform="translate(767.164 3158.5)">
          <line id="線_7-67" data-name="線 7" class="cls-2" x1="67.429" y1="95.062" transform="translate(0)"/>
          <line id="線_7-68" data-name="線 7" class="cls-2" x1="67.429" y1="95.062" transform="translate(12.643)"/>
          <line id="線_7-69" data-name="線 7" class="cls-2" x1="67.429" y1="95.062" transform="translate(25.286)"/>
          <line id="線_7-70" data-name="線 7" class="cls-2" x1="67.429" y1="95.062" transform="translate(37.929)"/>
          <line id="線_7-71" data-name="線 7" class="cls-2" x1="67.429" y1="95.062" transform="translate(50.572)"/>
          <line id="線_7-72" data-name="線 7" class="cls-2" x1="67.429" y1="95.062" transform="translate(63.215)"/>
          <line id="線_7-73" data-name="線 7" class="cls-2" x1="67.429" y1="95.062" transform="translate(75.858)"/>
          <line id="線_7-74" data-name="線 7" class="cls-2" x1="67.429" y1="95.062" transform="translate(88.501)"/>
          <line id="線_7-75" data-name="線 7" class="cls-2" x1="67.429" y1="95.062" transform="translate(101.144)"/>
          <line id="線_7-76" data-name="線 7" class="cls-2" x1="67.429" y1="95.062" transform="translate(113.787)"/>
          <line id="線_7-77" data-name="線 7" class="cls-2" x1="67.429" y1="95.062" transform="translate(126.43)"/>
          <line id="線_7-78" data-name="線 7" class="cls-2" x1="67.429" y1="95.062" transform="translate(139.073)"/>
          <line id="線_7-79" data-name="線 7" class="cls-2" x1="67.429" y1="95.062" transform="translate(151.716)"/>
          <line id="線_7-80" data-name="線 7" class="cls-2" x1="67.429" y1="95.062" transform="translate(164.359)"/>
          <line id="線_7-81" data-name="線 7" class="cls-2" x1="67.429" y1="95.062" transform="translate(177.002)"/>
          <line id="線_7-82" data-name="線 7" class="cls-2" x1="67.429" y1="95.062" transform="translate(189.645)"/>
          <line id="線_7-83" data-name="線 7" class="cls-2" x1="67.429" y1="95.062" transform="translate(202.287)"/>
          <line id="線_7-84" data-name="線 7" class="cls-2" x1="67.429" y1="95.062" transform="translate(214.93)"/>
          <line id="線_7-85" data-name="線 7" class="cls-2" x1="67.429" y1="95.062" transform="translate(227.573)"/>
          <line id="線_7-86" data-name="線 7" class="cls-2" x1="67.429" y1="95.062" transform="translate(240.216)"/>
          <line id="線_7-87" data-name="線 7" class="cls-2" x1="67.429" y1="95.062" transform="translate(252.859)"/>
          <line id="線_7-88" data-name="線 7" class="cls-2" x1="67.429" y1="95.062" transform="translate(265.502)"/>
          <line id="線_7-89" data-name="線 7" class="cls-2" x1="67.429" y1="95.062" transform="translate(278.145)"/>
          <line id="線_7-90" data-name="線 7" class="cls-2" x1="67.429" y1="95.062" transform="translate(290.788)"/>
          <line id="線_7-91" data-name="線 7" class="cls-2" x1="67.429" y1="95.062" transform="translate(303.431)"/>
          <line id="線_7-92" data-name="線 7" class="cls-2" x1="67.429" y1="95.062" transform="translate(316.074)"/>
          <line id="線_7-93" data-name="線 7" class="cls-2" x1="67.429" y1="95.062" transform="translate(328.717)"/>
          <line id="線_7-94" data-name="線 7" class="cls-2" x1="67.429" y1="95.062" transform="translate(341.36)"/>
          <line id="線_7-95" data-name="線 7" class="cls-2" x1="67.429" y1="95.062" transform="translate(354.003)"/>
          <line id="線_7-96" data-name="線 7" class="cls-2" x1="67.429" y1="95.062" transform="translate(366.646)"/>
          <line id="線_7-97" data-name="線 7" class="cls-2" x1="67.429" y1="95.062" transform="translate(379.289)"/>
          <line id="線_7-98" data-name="線 7" class="cls-2" x1="67.429" y1="95.062" transform="translate(391.932)"/>
          <line id="線_7-99" data-name="線 7" class="cls-2" x1="67.429" y1="95.062" transform="translate(404.575)"/>
        </g>
      </g>
      <g id="グループ化_2-4" data-name="グループ化 2" transform="translate(1103.164 3271.5)">
        <line id="線_7-100" data-name="線 7" class="cls-2" x1="67.429" y1="95.062" transform="translate(0)"/>
        <line id="線_7-101" data-name="線 7" class="cls-2" x1="67.429" y1="95.062" transform="translate(12.643)"/>
        <line id="線_7-102" data-name="線 7" class="cls-2" x1="67.429" y1="95.062" transform="translate(25.286)"/>
        <line id="線_7-103" data-name="線 7" class="cls-2" x1="67.429" y1="95.062" transform="translate(37.929)"/>
        <line id="線_7-104" data-name="線 7" class="cls-2" x1="67.429" y1="95.062" transform="translate(50.572)"/>
        <line id="線_7-105" data-name="線 7" class="cls-2" x1="67.429" y1="95.062" transform="translate(63.215)"/>
        <line id="線_7-106" data-name="線 7" class="cls-2" x1="67.429" y1="95.062" transform="translate(75.858)"/>
        <line id="線_7-107" data-name="線 7" class="cls-2" x1="67.429" y1="95.062" transform="translate(88.501)"/>
        <line id="線_7-108" data-name="線 7" class="cls-2" x1="67.429" y1="95.062" transform="translate(101.144)"/>
        <line id="線_7-109" data-name="線 7" class="cls-2" x1="67.429" y1="95.062" transform="translate(113.787)"/>
        <line id="線_7-110" data-name="線 7" class="cls-2" x1="67.429" y1="95.062" transform="translate(126.43)"/>
        <line id="線_7-111" data-name="線 7" class="cls-2" x1="67.429" y1="95.062" transform="translate(139.073)"/>
        <line id="線_7-112" data-name="線 7" class="cls-2" x1="67.429" y1="95.062" transform="translate(151.716)"/>
        <line id="線_7-113" data-name="線 7" class="cls-2" x1="67.429" y1="95.062" transform="translate(164.359)"/>
        <line id="線_7-114" data-name="線 7" class="cls-2" x1="67.429" y1="95.062" transform="translate(177.002)"/>
        <line id="線_7-115" data-name="線 7" class="cls-2" x1="67.429" y1="95.062" transform="translate(189.645)"/>
        <line id="線_7-116" data-name="線 7" class="cls-2" x1="67.429" y1="95.062" transform="translate(202.287)"/>
        <line id="線_7-117" data-name="線 7" class="cls-2" x1="67.429" y1="95.062" transform="translate(214.93)"/>
        <line id="線_7-118" data-name="線 7" class="cls-2" x1="67.429" y1="95.062" transform="translate(227.573)"/>
        <line id="線_7-119" data-name="線 7" class="cls-2" x1="67.429" y1="95.062" transform="translate(240.216)"/>
        <line id="線_7-120" data-name="線 7" class="cls-2" x1="67.429" y1="95.062" transform="translate(252.859)"/>
        <line id="線_7-121" data-name="線 7" class="cls-2" x1="67.429" y1="95.062" transform="translate(265.502)"/>
        <line id="線_7-122" data-name="線 7" class="cls-2" x1="67.429" y1="95.062" transform="translate(278.145)"/>
        <line id="線_7-123" data-name="線 7" class="cls-2" x1="67.429" y1="95.062" transform="translate(290.788)"/>
        <line id="線_7-124" data-name="線 7" class="cls-2" x1="67.429" y1="95.062" transform="translate(303.431)"/>
        <line id="線_7-125" data-name="線 7" class="cls-2" x1="67.429" y1="95.062" transform="translate(316.074)"/>
        <line id="線_7-126" data-name="線 7" class="cls-2" x1="67.429" y1="95.062" transform="translate(328.717)"/>
        <line id="線_7-127" data-name="線 7" class="cls-2" x1="67.429" y1="95.062" transform="translate(341.36)"/>
        <line id="線_7-128" data-name="線 7" class="cls-2" x1="67.429" y1="95.062" transform="translate(354.003)"/>
        <line id="線_7-129" data-name="線 7" class="cls-2" x1="67.429" y1="95.062" transform="translate(366.646)"/>
        <line id="線_7-130" data-name="線 7" class="cls-2" x1="67.429" y1="95.062" transform="translate(379.289)"/>
        <line id="線_7-131" data-name="線 7" class="cls-2" x1="67.429" y1="95.062" transform="translate(391.932)"/>
        <line id="線_7-132" data-name="線 7" class="cls-2" x1="67.429" y1="95.062" transform="translate(404.575)"/>
      </g>
    </g>
  </g>
</svg>
