<svg xmlns="http://www.w3.org/2000/svg" xmlns:xlink="http://www.w3.org/1999/xlink" viewBox="-2494 -3009 279 279"><defs><style>.a{clip-path:url(#c);}.b{fill:url(#a);}.c,.d,.f{fill:none;}.c,.d{stroke:#fff;}.c{stroke-width:9px;}.d{stroke-width:8px;}.e{stroke:none;}.g{fill:#fff;}</style><linearGradient id="a" x1="0.214" y1="0.429" x2="0.843" y2="0.419" gradientUnits="objectBoundingBox"><stop offset="0" stop-color="#00e0c6"/><stop offset="1" stop-color="#43d0d6"/></linearGradient><clipPath id="c"><rect x="-2494" y="-3009" width="279" height="279"/></clipPath></defs><g id="b" class="a"><rect class="g" x="-2494" y="-3009" width="279" height="279"/><rect class="b" width="279" height="279" transform="translate(-2494 -3009)"/><g transform="translate(-2482 -2997.758)"><g transform="translate(0 0.507)"><g class="c" transform="translate(42.756 85.511)"><circle class="e" cx="85.243" cy="85.243" r="85.243"/><circle class="f" cx="85.243" cy="85.243" r="80.743"/></g><g class="c" transform="translate(170.487 41.645) rotate(90)"><circle class="e" cx="85.243" cy="85.243" r="85.243"/><circle class="f" cx="85.243" cy="85.243" r="80.743"/></g><g class="c" transform="translate(42.756 0)"><circle class="e" cx="85.243" cy="85.243" r="85.243"/><circle class="f" cx="85.243" cy="85.243" r="80.743"/></g><g class="c" transform="translate(255.998 41.645) rotate(90)"><circle class="e" cx="85.243" cy="85.243" r="85.243"/><circle class="f" cx="85.243" cy="85.243" r="80.743"/></g></g><g class="d" transform="translate(0 0)"><circle class="e" cx="127.999" cy="127.999" r="127.999"/><circle class="f" cx="127.999" cy="127.999" r="123.999"/></g></g></g></svg>