<svg xmlns="http://www.w3.org/2000/svg" xmlns:xlink="http://www.w3.org/1999/xlink" viewBox="765 -839 39 42">
  <defs>
    <style>
      .cls-1 {
        clip-path: url(#clip-アートボード_6);
      }

      .cls-2 {
        fill: #1aded6;
      }
    </style>
    <clipPath id="clip-アートボード_6">
      <rect x="765" y="-839" width="39" height="42"/>
    </clipPath>
  </defs>
  <g id="アートボード_6" data-name="アートボード – 6" class="cls-1">
    <g id="メンヘラ" transform="translate(772.064 -830)">
      <g id="_1" data-name="1" transform="translate(0 0)">
        <path id="パス_127" data-name="パス 127" class="cls-2" d="M24.433,20.758,17.9,14.225h0l-.171.171L15.138,11.8h0l-.179.179C10.837,7.7,8.028,4.816,7.051,3.838,3.977.773,1.978.274,1.76.227L.708-.007a.464.464,0,0,0-.125,0A.6.6,0,0,0,.159.169.608.608,0,0,0-.016.718l.238,1.06C.584,3.472,2.356,6.106,5.644,9.842c2.213,2.517,4.379,4.675,4.624,4.92l.479.471a.612.612,0,0,0,.861,0l.136-.132.308-.277,2.606,2.606-.164.164h0l6.549,6.553a1.663,1.663,0,0,0,2.337,0l1.044-1.04a1.667,1.667,0,0,0,0-2.337ZM5.313,7.454l-.234-.28L4.857,6.9l-.023-.031C3.182,4.832,1.776,2.8,1.5,1.5c.039,0,1.776.39,4.6,3.226,1.7,1.7,8.123,8.36,8.123,8.36L13.307,14l-1.274-1-.853.834S8.028,10.714,5.313,7.458ZM17,15.51l-1.208,1.208-1.905-1.905L15.1,13.605Z" transform="translate(0.027 0.011)"/>
      </g>
    </g>
  </g>
</svg>
