<svg xmlns="http://www.w3.org/2000/svg" xmlns:xlink="http://www.w3.org/1999/xlink" viewBox="765 -839 39 42">
  <defs>
    <style>
      .cls-1 {
        clip-path: url(#clip-アートボード_6);
      }

      .cls-2 {
        fill: #1aded6;
      }
    </style>
    <clipPath id="clip-アートボード_6">
      <rect x="765" y="-839" width="39" height="42"/>
    </clipPath>
  </defs>
  <g id="アートボード_6" data-name="アートボード – 6" class="cls-1">
    <g id="ナルシ" transform="translate(774.3 -830)">
      <g id="_1" data-name="1" transform="translate(0 0)">
        <path id="パス_118" data-name="パス 118" class="cls-2" d="M26.042,24.207a1.469,1.469,0,0,0,.261.39,3.167,3.167,0,0,0,.39.362,3.533,3.533,0,0,0,.526.3,3.116,3.116,0,0,0,.643.2,3.779,3.779,0,0,0,.732.055,3.117,3.117,0,0,0,1.367-.39,2.31,2.31,0,0,0,.849-.779,1.169,1.169,0,0,0,.129-1.169h0a.779.779,0,0,0-.055-.078.725.725,0,0,0-.055-.074h0a.8.8,0,0,0-.121-.109h0a2.754,2.754,0,0,1-.557.413,3.557,3.557,0,0,1-1.613.471,4.41,4.41,0,0,1-1.741-.3,2.088,2.088,0,0,1-.319-.129l-.245-.113-.214-.1a1.056,1.056,0,0,0-.1.7,1.527,1.527,0,0,0,.125.355Z" transform="translate(-15.808 -13.986)"/>
        <path id="パス_119" data-name="パス 119" class="cls-2" d="M23.544,11.78a2.38,2.38,0,0,0-.471.055,2.337,2.337,0,0,0-.5.214,1.134,1.134,0,0,0-.249.175,3.087,3.087,0,0,0-.238.218,1.816,1.816,0,0,0-.206.273,1.6,1.6,0,0,0-.175.319,1.905,1.905,0,0,0-.07.195h0a2.232,2.232,0,0,0-.086,1.114,1.8,1.8,0,0,0,.483.912,1.052,1.052,0,0,0,1.371.179,2.4,2.4,0,0,1-.187-.522,2.2,2.2,0,0,1-.062-.577,1.624,1.624,0,0,1,.043-.3,1.348,1.348,0,0,1,.093-.288c.039-.093.105-.175.152-.269a1.02,1.02,0,0,1,.21-.242l.242-.21.257-.168.113-.074.117-.055.191-.093.168-.082a1.169,1.169,0,0,0-.432-.542,1.367,1.367,0,0,0-.339-.164,1.192,1.192,0,0,0-.421-.07Z" transform="translate(-13.131 -7.191)"/>
        <path id="パス_120" data-name="パス 120" class="cls-2" d="M29.473,20.524a1.473,1.473,0,0,0,.218.055h.238a1.737,1.737,0,0,0,.514-.058,1.667,1.667,0,0,0,.865-.545,1.278,1.278,0,0,0,.3-.752.779.779,0,0,0-.444-.779h-.074L31,18.42h0a1.363,1.363,0,0,1-.171.351,1.23,1.23,0,0,1-.713.514,2.275,2.275,0,0,1-1.032-.035,3.744,3.744,0,0,1-.39-.105L28.55,19.1a.986.986,0,0,0,.273,1.044A1.558,1.558,0,0,0,29.473,20.524Z" transform="translate(-17.396 -11.245)"/>
        <path id="パス_121" data-name="パス 121" class="cls-2" d="M28.612,16.383h.023a.779.779,0,0,0,.175.074h.031a.849.849,0,0,0,.206.027h.136a1.138,1.138,0,0,1,.039-.175.849.849,0,0,1,.273-.39,1.3,1.3,0,0,1,.526-.23,1.558,1.558,0,0,1,.218-.039h.086a1.067,1.067,0,0,0-.479-.857,1.028,1.028,0,0,0-1.169.113,1.134,1.134,0,0,0-.39.58.865.865,0,0,0,.039.58A.713.713,0,0,0,28.612,16.383Z" transform="translate(-17.248 -8.951)"/>
        <path id="パス_122" data-name="パス 122" class="cls-2" d="M32.342,10.349a1.948,1.948,0,0,0-.129-1,2.587,2.587,0,0,0-1.8-1.515,2.049,2.049,0,0,0-.986,0A1.118,1.118,0,0,0,28.52,8.9a3.292,3.292,0,0,1,.6.132,4.145,4.145,0,0,1,.627.249,3.4,3.4,0,0,1,.627.413,2.945,2.945,0,0,1,.818,1.095,2.462,2.462,0,0,1,.16.44l.055.171a1.169,1.169,0,0,0,.6-.347,1.293,1.293,0,0,0,.335-.705Z" transform="translate(-17.409 -4.747)"/>
        <path id="パス_123" data-name="パス 123" class="cls-2" d="M13.494,10.727h.066a8.1,8.1,0,0,1,.319-1.438,7.566,7.566,0,0,1,1.558-2.84,5.259,5.259,0,0,1,2.626-1.558A7.012,7.012,0,0,1,19.1,4.72l.39-.027a1.1,1.1,0,0,0-.44-.822,2.5,2.5,0,0,0-1.278-.5,4.215,4.215,0,0,0-1.948.249A5.131,5.131,0,0,0,13.81,5a5.7,5.7,0,0,0-1.2,2.069,4.994,4.994,0,0,0-.245,1.889C12.462,10.01,12.926,10.672,13.494,10.727Z" transform="translate(-7.542 -2.044)"/>
        <path id="パス_124" data-name="パス 124" class="cls-2" d="M38.2,17.117a2.672,2.672,0,0,0-.467-1.418.818.818,0,0,0-.39-.3.876.876,0,0,0-.218-.023H36.9a.152.152,0,0,0,0,.027,2.4,2.4,0,0,1,0,.245,6.556,6.556,0,0,1-.214,1.169,9.4,9.4,0,0,1-.608,1.64A6.9,6.9,0,0,1,35,20.1a4.11,4.11,0,0,1-1.418,1.044,3.568,3.568,0,0,1-1.461.257,5.224,5.224,0,0,1-.623-.058c-.187-.043-.355-.074-.491-.109L30.58,21.1a1.048,1.048,0,0,0,.168.935,1.34,1.34,0,0,0,.1.121h0a2.637,2.637,0,0,0,.355.351,3.117,3.117,0,0,0,.74.413,3.756,3.756,0,0,0,2.263.113,4.554,4.554,0,0,0,.651-.214,5.111,5.111,0,0,0,1.753-1.274,5.777,5.777,0,0,0,.818-1.169,6.234,6.234,0,0,0,.5-1.169,5.665,5.665,0,0,0,.273-2.088Z" transform="translate(-18.639 -9.389)"/>
        <path id="パス_125" data-name="パス 125" class="cls-2" d="M32.076,1.439A8.543,8.543,0,0,1,33.3,2.479,5.583,5.583,0,0,1,34.3,3.9a4.4,4.4,0,0,1,.3.779,4.165,4.165,0,0,1,.117.779A4.71,4.71,0,0,1,34.542,6.9a7.036,7.036,0,0,1-.39,1.021l-.195.39a1.083,1.083,0,0,0,.939.023,1.917,1.917,0,0,0,.549-.323c.043-.031.082-.074.125-.109h0a3.264,3.264,0,0,0,.417-.452,3.935,3.935,0,0,0,.518-1.005l.027-.086a4.124,4.124,0,0,0,.125-.464.252.252,0,0,1,.023-.129,1.053,1.053,0,0,0,.047-.249,4.675,4.675,0,0,0-.464-2.579,5.52,5.52,0,0,0-.358-.6,5.948,5.948,0,0,0-.39-.522c-.051-.058-.105-.109-.156-.164l-.086-.093a5.988,5.988,0,0,0-.627-.565,5.064,5.064,0,0,0-1.784-.88A2.106,2.106,0,0,0,30.915.36l-.027.031a.81.81,0,0,0-.066.082.744.744,0,0,0-.082.16h0a8.676,8.676,0,0,1,1.336.806Z" transform="translate(-18.764 -0.002)"/>
        <path id="パス_126" data-name="パス 126" class="cls-2" d="M12.022,24.648A9.167,9.167,0,0,1,9.529,22.7a6.479,6.479,0,0,1-.915-1.34,5.454,5.454,0,0,1-.464-1.309c-.047-.2-.07-.39-.1-.549a2.6,2.6,0,0,1-.035-.432v-.39a1.122,1.122,0,0,0-.838.39,2.365,2.365,0,0,0-.557,1.208,4.126,4.126,0,0,0,.144,1.862,5.364,5.364,0,0,0,1.122,1.995,5.7,5.7,0,0,0,.588.584c-.148.253-.327.569-.542.923l-.109-.035-.456-.129a.662.662,0,0,1-.277-.113,7.179,7.179,0,0,0-.623-.487,5.139,5.139,0,0,0-1.13-.588h0l-.156-.055h0l-.156-.047h0l-.168-.039h0a2.883,2.883,0,0,0-.577-.055H4.25a2.376,2.376,0,0,0-.277,0,2.692,2.692,0,0,0-.557.136l-.121.027-.1.039-.206.093-.09.043-.175.125-.093.055-.156.1-.14.078-.117.082-.144.105-.214.168H1.839a6.087,6.087,0,0,0-.545.483c-.082.078-.156.164-.234.245s-.206.21-.308.319-.164.164-.242.253l-.148.175h0l-.144.171c-.062.078-.222.226-.218.323s.125.086.195.093a1.074,1.074,0,0,1,.277.035,2.848,2.848,0,0,1,.7.245c.39.183.8.39,1.212.545a4.959,4.959,0,0,0,1.422.39,2.945,2.945,0,0,0,1.465-.269A3.67,3.67,0,0,0,6.4,27.313l.086-.1.031-.035q.093-.105.179-.218h0l.1-.129.171-.242c.043-.062.125-.152.125-.23,0-.14-.226-.171-.327-.206l-.343-.113a6.354,6.354,0,0,0-.822-.187,6.073,6.073,0,0,0-1.71-.039l-.265.039a.471.471,0,0,1-.2,0,.273.273,0,0,1-.07-.039.191.191,0,0,1-.043-.062h0l.132-.047a4.4,4.4,0,0,1,.744-.168,6.144,6.144,0,0,1,1.118-.047h0l.37.027a10.1,10.1,0,0,1,1.874.362l.183.055c-.686,1.141-1.617,2.637-2.567,4.126l-.148.234-.561-.168a.109.109,0,0,0-.113.175l.39.444c-1.4,2.178-2.758,4.211-3.269,4.975a.39.39,0,1,0,.643.44c.327-.452.974-1.387,1.753-2.5l.39.121a.109.109,0,0,0,.113-.175L4.1,33.3c.577-.841,1.215-1.776,1.847-2.727l.6-.892.035-.051a8.777,8.777,0,0,1,1.469,1.4A5.618,5.618,0,0,1,8.758,32.1,3.8,3.8,0,0,1,9,32.712a.422.422,0,0,1,.031.117c-.008.016-.117,0-.136-.027a.39.39,0,0,1-.086-.152l-.093-.21a5.209,5.209,0,0,0-.834-1.169c-.055-.058-.117-.105-.171-.16l-.183-.171c-.058-.055-.113-.113-.175-.164l-.245-.191c-.074-.055-.2-.2-.3-.132s-.078.136-.1.2-.062.156-.09.238-.027.09-.043.132h0q-.039.117-.066.234v.039a.154.154,0,0,1-.027.105,3.152,3.152,0,0,0-.047,1.212,2.524,2.524,0,0,0,.518,1.169,4.262,4.262,0,0,0,.951.83c.316.214.647.39.974.6a2.458,2.458,0,0,1,.5.39c.055.058.105.117.156.179s.09.136.16.093.1-.234.125-.312.035-.125.051-.187h0a.926.926,0,0,1,.051-.191c.082-.312.148-.631.2-.951.031-.2.058-.413.078-.619V32.432a.822.822,0,0,0-.035-.191l-.019-.09a.163.163,0,0,0-.019-.093,2.3,2.3,0,0,0-.171-.46,2.337,2.337,0,0,0-.46-.608h0l-.132-.109h0l-.109-.09h0l-.113-.086h0a4.4,4.4,0,0,0-.962-.518c-.21-.082-.429-.144-.647-.21a.565.565,0,0,1-.214-.14l-.312-.261L6.771,29.4c.39-.577.748-1.138,1.087-1.663l.549.168a.109.109,0,0,0,.113-.175l-.39-.436.526-.83c.269-.429.5-.806.686-1.11.105.062.21.121.312.175a5.033,5.033,0,0,0,1.722.522,2.236,2.236,0,0,0,1.605-.323h0a1.029,1.029,0,0,0,.14-.132l.031-.043a.908.908,0,0,0,.093-.125.814.814,0,0,0,.074-.183h0a8.921,8.921,0,0,1-1.3-.6Z" transform="translate(0 -11.404)"/>
      </g>
    </g>
  </g>
</svg>
