<svg xmlns="http://www.w3.org/2000/svg" xmlns:xlink="http://www.w3.org/1999/xlink" viewBox="765 -839 39 42">
  <defs>
    <style>
      .cls-1 {
        clip-path: url(#clip-アートボード_6);
      }

      .cls-2 {
        fill: #1aded6;
      }
    </style>
    <clipPath id="clip-アートボード_6">
      <rect x="765" y="-839" width="39" height="42"/>
    </clipPath>
  </defs>
  <g id="アートボード_6" data-name="アートボード – 6" class="cls-1">
    <g id="オタク" transform="translate(774.71 -830)">
      <g id="_1" data-name="1" transform="translate(0)">
        <path id="パス_112" data-name="パス 112" class="cls-2" d="M20.4,23.164a2.392,2.392,0,0,0-.744-1.737h0c-1.332-1.247-3.779-3.35-5.454-3.717V15.193l.082-.078a4.441,4.441,0,0,0,1.3-2.049A2.376,2.376,0,0,0,17.5,11.753c.031-.062.051-.125.078-.187l.035-.082a5.064,5.064,0,0,0,.3-1.527c.132-1.8-1.013-2.2-1.414-2.295V6.74a7.347,7.347,0,0,0-1.013-3.806A7.808,7.808,0,0,0,10.2,0,7.827,7.827,0,0,0,4.9,2.933,7.359,7.359,0,0,0,3.9,6.74c0,.448,0,.717.019.923-.39.082-1.558.479-1.414,2.295a4.468,4.468,0,0,0,.417,1.8,2.365,2.365,0,0,0,1.924,1.313,4.453,4.453,0,0,0,1.3,2.049l.074.07v2.536c-1.671.362-4.126,2.47-5.466,3.7A2.38,2.38,0,0,0,0,23.164v1.769H20.4ZM15.871,9.393a1.845,1.845,0,0,1,.031-.234V8.972a.436.436,0,0,1,.148-.023.6.6,0,0,1,.14,0c.319.07.413.39.39.9A3.319,3.319,0,0,1,16.3,11.13a.962.962,0,0,1-.58.557h-.051l-.09.027h0Q15.669,10.768,15.871,9.393ZM4.1,11.146A3.315,3.315,0,0,1,3.822,9.86c-.035-.514.055-.826.39-.9a.67.67,0,0,1,.14,0h0a.452.452,0,0,1,.148.023v.183a.656.656,0,0,0,.031.238c.1.627.171,1.169.234,1.675.019.191.047.39.066.565v.078a1,1,0,0,1-.732-.58ZM6.514,6.728a2.337,2.337,0,0,1,.023-1.519,9.712,9.712,0,0,1,7.324,0,2.31,2.31,0,0,1,.023,1.519l-.062.105.07.1a6.9,6.9,0,0,1,.46.861l.082.195h-.117a1.032,1.032,0,0,0-.542-.195H11.438a1.188,1.188,0,0,0-.919.366H9.9a1.208,1.208,0,0,0-.943-.366H6.623a1.044,1.044,0,0,0-.545.183H5.96a7.375,7.375,0,0,1,.545-1.056l.066-.1ZM11.738,9.1h.039a.105.105,0,0,0,.1-.062l.171-.425h.666l-.249.962a.132.132,0,0,0,.078.152h.039a.117.117,0,0,0,.113-.07l.39-1.04h.627c.265,0,.265.2.265.2V9.28c-.035.736-.362.993-.982.993H11.75c-.3,0-.717-.39-.717-1.169,0-.429.109-.475.351-.475h.366l-.082.355a.117.117,0,0,0,.07.117Zm-4.126.312a.148.148,0,0,0,.191-.09l.253-.709h.958c.242,0,.351.047.351.475,0,.806-.417,1.169-.717,1.169H7.4c-.616,0-.947-.257-.982-.993V8.8s0-.2.265-.2H7.714l-.171.619A.152.152,0,0,0,7.612,9.412Zm5.415,10.694a4.007,4.007,0,0,1-5.657,0,2.139,2.139,0,0,1-.565-.88c.117-.113.343-.316.53-.464l.222-.171V16.124A4.34,4.34,0,0,0,10.2,17.172a4.009,4.009,0,0,0,2.24-.76l.1-.07.051-.035.187-.136.078-.043v2.466l.222.171c.187.144.39.347.534.46a2.275,2.275,0,0,1-.584.88Zm.39-6.031-.082.082c-.156.152-.319.308-.491.464A4.278,4.278,0,0,1,10.2,16.027a4.24,4.24,0,0,1-2.641-1.406c-.171-.156-.335-.312-.495-.464-.027-.027-.055-.051-.078-.078a3.985,3.985,0,0,1-.514-.616,2.614,2.614,0,0,1-.3-.584,2.879,2.879,0,0,1-.148-.748c-.031-.355-.07-.756-.129-1.212v-.047c0-.206-.027-.425-.043-.647a1.625,1.625,0,0,0,1.515.849H8.617a1.79,1.79,0,0,0,1.492-1.667H10.3a1.79,1.79,0,0,0,1.492,1.667h1.251a1.632,1.632,0,0,0,1.336-.6,1.819,1.819,0,0,0,.175-.242c0,.265-.035.522-.051.76a.078.078,0,0,1,0,.031c-.051.413-.09.779-.117,1.106a3.047,3.047,0,0,1-.148.748,2.774,2.774,0,0,1-.3.584,4.153,4.153,0,0,1-.518.608Z" transform="translate(0)"/>
      </g>
    </g>
  </g>
</svg>
