<svg xmlns="http://www.w3.org/2000/svg" xmlns:xlink="http://www.w3.org/1999/xlink" viewBox="765 -839 39 42">
  <defs>
    <style>
      .cls-1 {
        clip-path: url(#clip-アートボード_6);
      }

      .cls-2 {
        fill: #1aded6;
      }
    </style>
    <clipPath id="clip-アートボード_6">
      <rect x="765" y="-839" width="39" height="42"/>
    </clipPath>
  </defs>
  <g id="アートボード_6" data-name="アートボード – 6" class="cls-1">
    <g id="オワコン" transform="translate(772.253 -829)">
      <g id="_1" data-name="1" transform="translate(0)">
        <path id="パス_113" data-name="パス 113" class="cls-2" d="M24.921,16.031A3.206,3.206,0,0,0,23.714,13.9,1.126,1.126,0,0,0,23,13.639a1.169,1.169,0,0,0-.464.1l-6.685,3-.319.144-.055-.14a4.546,4.546,0,1,0-6.038,0l-.055.14-7.012-3.14a1.169,1.169,0,0,0-.464-.1,1.126,1.126,0,0,0-.717.261,3.206,3.206,0,0,0-1.2,2.131A2.778,2.778,0,0,0,1.707,18.8c-.475,1.995,1.056,3.576,3.409,3.822a5.988,5.988,0,0,0,.635.031A6.335,6.335,0,0,0,7.04,22.51l.218-.043-.736,1.948-.019.055v.055a2.4,2.4,0,0,0,1.558,2.961,14.687,14.687,0,0,0,8.785,0A2.4,2.4,0,0,0,18.4,24.524v-.055l-.019-.055-.475-1.243-.257-.693a6.331,6.331,0,0,0,1.492.179,5.988,5.988,0,0,0,.635-.031c2.337-.249,3.9-1.831,3.409-3.822A2.782,2.782,0,0,0,24.921,16.031Zm-3.3,4.231a2.754,2.754,0,0,1-1.987.951,4.788,4.788,0,0,1-.487.023,4.593,4.593,0,0,1-2.166-.526l-.947-2.485,6.911-3.117a1.741,1.741,0,0,1,.553,1.067,1.375,1.375,0,0,1-.912,1.344l-1.04.495.261,1.118a1.321,1.321,0,0,1-.187,1.13Zm-5.2,5.875a13.246,13.246,0,0,1-7.912,0,.986.986,0,0,1-.647-1.212l1.239-3.269,1.457-3.841.616-1.628a3.117,3.117,0,1,1,2.579,0l.616,1.621,1.457,3.849,1.239,3.269A.986.986,0,0,1,16.413,26.137Zm-13.308-7,.269-1.122-1.048-.491a1.375,1.375,0,0,1-.915-1.336,1.749,1.749,0,0,1,.557-1.075l6.911,3.117-.947,2.5a4.616,4.616,0,0,1-2.166.522,4.757,4.757,0,0,1-.487-.023,2.75,2.75,0,0,1-1.987-.951A1.328,1.328,0,0,1,3.105,19.132Z" transform="translate(0.019 -5.369)"/>
        <ellipse id="楕円形_33" data-name="楕円形 33" class="cls-2" cx="0.506" cy="0.608" rx="0.506" ry="0.608" transform="translate(10.826 6.868)"/>
        <ellipse id="楕円形_34" data-name="楕円形 34" class="cls-2" cx="0.506" cy="0.608" rx="0.506" ry="0.608" transform="translate(13.109 6.868)"/>
        <path id="パス_114" data-name="パス 114" class="cls-2" d="M31.208,23.369a.3.3,0,0,0-.09-.214h0a.257.257,0,0,0-.082-.055.3.3,0,0,0-.347.055h0l-.117.062a2.045,2.045,0,0,1-1.558,0l-.117-.062h0a.3.3,0,0,0-.347-.055.257.257,0,0,0-.082.055h0a.3.3,0,0,0-.09.214.308.308,0,0,0,.09.214,1.866,1.866,0,0,0,1.321.553h0a1.866,1.866,0,0,0,1.328-.549A.308.308,0,0,0,31.208,23.369Z" transform="translate(-17.317 -14.082)"/>
        <path id="パス_115" data-name="パス 115" class="cls-2" d="M28.16,2.435c1.356,0,2.45-.495,2.45-1.1V1.1c0-.608-1.095-1.1-2.45-1.1s-2.45.495-2.45,1.1v.226C25.71,1.948,26.809,2.435,28.16,2.435Zm0-1.7c.542,0,.982.179.982.39s-.44.39-.982.39-.982-.179-.982-.39S27.619.732,28.16.732Z" transform="translate(-15.687)"/>
      </g>
    </g>
  </g>
</svg>
