<svg xmlns="http://www.w3.org/2000/svg" viewBox="0 0 110.82 110.82"><title>アセット 1</title><g id="レイヤー_2" data-name="レイヤー 2"><g id="_1" data-name="1"><path d="M29.15,84.43a108.68,108.68,0,0,0,26.27,3,109,109,0,0,0,26.24-3,2.47,2.47,0,0,0,1.81-2.84c-.05-.3-.13-.58-.2-.88l0-.16c-.07-.3-.13-.62-.21-.91-.14-.52-.29-1-.47-1.5-.08-.24-.18-.46-.26-.69l0,0c-.1-.26-.19-.53-.3-.77A14,14,0,0,0,79.05,72c-1.14-1.05-6.3-3.67-10.7-5.91a28.12,28.12,0,0,1-5.54-3.55V58.23a1.84,1.84,0,0,0,.69-.5.66.66,0,0,0,.11-.13A6.85,6.85,0,0,0,65,55.4l.09-.27a28.94,28.94,0,0,0,1.05-3.82c0-.05,0-.09,0-.13a2.24,2.24,0,0,0,.64.1c2.32,0,3.27-4.75,3.4-6a3,3,0,0,0-1.39-2.45,8.33,8.33,0,0,0,.31-.85l0-.08a17.78,17.78,0,0,0,.52-1.82c.11-.48.21-1.05.3-1.72a6.82,6.82,0,0,0,0-1.28,8.28,8.28,0,0,0-.55-2.68,6.63,6.63,0,0,0-1.11-2h0a12.38,12.38,0,0,0-1.06-1.12c-1.5-1.45-3.27-2.62-4.1-2.62-1.68-3-3.83-5-7.81-5.25l-.74,0h-.05c-3,0-8.06,2.58-10.64,6.1h0a9.57,9.57,0,0,0-.69,1.07c-.34.62-.65,1.2-.91,1.75a13.27,13.27,0,0,0-.94,2.55,6.07,6.07,0,0,0-.24,1.2A12.74,12.74,0,0,0,41.23,40h0c.09.61.21,1.27.37,2a0,0,0,0,1,0,0,6,6,0,0,0,.33.85A2.36,2.36,0,0,0,40.67,45c.13,1.26.94,6.32,3.26,6.32a2.38,2.38,0,0,0,.67-.1h0a12.82,12.82,0,0,0,.68,2.7c.12.34.26.77.41,1.22l.09.26a6.8,6.8,0,0,0,1.31,2.17l.19.21a1.92,1.92,0,0,0,.69.49v4.31a27.43,27.43,0,0,1-5.53,3.55C38,68.34,32.9,71,31.76,72a14,14,0,0,0-2.94,4.64c-.2.48-.4,1-.58,1.51s-.33,1-.46,1.5a19.77,19.77,0,0,0-.44,1.95A2.47,2.47,0,0,0,29.15,84.43Z" fill="#9d9d9d"/><circle cx="55.41" cy="55.41" r="53.41" fill="none" stroke="#9d9d9d" stroke-miterlimit="10" stroke-width="4"/></g></g></svg>