<svg xmlns="http://www.w3.org/2000/svg" xmlns:xlink="http://www.w3.org/1999/xlink" viewBox="765 -839 39 42">
  <defs>
    <style>
      .cls-1 {
        clip-path: url(#clip-アートボード_6);
      }

      .cls-2 {
        fill: #1aded6;
      }
    </style>
    <clipPath id="clip-アートボード_6">
      <rect x="765" y="-839" width="39" height="42"/>
    </clipPath>
  </defs>
  <g id="アートボード_6" data-name="アートボード – 6" class="cls-1">
    <g id="スケベ" transform="translate(772.471 -824)">
      <g id="_1" data-name="1" transform="translate(0 0)">
        <path id="パス_116" data-name="パス 116" class="cls-2" d="M22.7,8.31H2.232V1.079A1.079,1.079,0,0,0,1.169,0H1.079A1.079,1.079,0,0,0,0,1.079V12.934H2.232V10.542H22.7v2.411h2.232V8.31Z" transform="translate(0 0)"/>
        <path id="パス_117" data-name="パス 117" class="cls-2" d="M39.564,7.329a1.808,1.808,0,0,0-1.808-1.808L28.067,4.31A1.808,1.808,0,0,0,26.26,6.137V9.371h13.3Z" transform="translate(-16.03 -2.631)"/>
        <ellipse id="楕円形_35" data-name="楕円形 35" class="cls-2" cx="2.696" cy="2.696" rx="2.696" ry="2.696" transform="translate(3.814 1.348)"/>
      </g>
    </g>
  </g>
</svg>
