<svg xmlns="http://www.w3.org/2000/svg" xmlns:xlink="http://www.w3.org/1999/xlink" viewBox="-5306 -1521 32 26.36">
  <defs>
    <style>
      .cls-1 {
        clip-path: url(#clip-アートボード_1);
      }

      .cls-2 {
        fill: #fff;
        stroke: rgba(0,0,0,0);
      }
    </style>
    <clipPath id="clip-アートボード_1">
      <rect x="-5306" y="-1521" width="32" height="26.36"/>
    </clipPath>
  </defs>
  <g id="アートボード_1" data-name="アートボード – 1" class="cls-1">
    <path id="パス_45" data-name="パス 45" class="cls-2" d="M103.074-119.98a5.987,5.987,0,0,1,1.841-4.308,6.12,6.12,0,0,1,4.308-1.762h.039a5.958,5.958,0,0,1,3.133.9,4.864,4.864,0,0,1,1.332,1.018,8.911,8.911,0,0,0,1.371-.352,13.065,13.065,0,0,0,2.546-1.136,6.937,6.937,0,0,1-1.371,2.35,4.321,4.321,0,0,1-1.292.979v.039q.078,0,1.057-.117a19.653,19.653,0,0,0,2.389-.783h.039a15.387,15.387,0,0,1-1.332,1.645,12.793,12.793,0,0,1-1.723,1.488v1.057a17.339,17.339,0,0,1-1.018,5.6,16.958,16.958,0,0,1-1.1,2.467,22.1,22.1,0,0,1-2.076,3.094,15.284,15.284,0,0,1-1.919,2,23.009,23.009,0,0,1-2.742,1.958A17.8,17.8,0,0,1,97.9-101.69a17.322,17.322,0,0,1-5.718-.979,15.817,15.817,0,0,1-3.721-1.8,10.752,10.752,0,0,0,1.253.078h.431a12.243,12.243,0,0,0,5.64-1.449,6.742,6.742,0,0,0,1.723-1.175h0A5.929,5.929,0,0,1,94.341-108a5.928,5.928,0,0,1-2.507-3.251,7.848,7.848,0,0,0,1.018.078H93.2a4,4,0,0,0,.666-.078q.666-.078.666-.157a4.319,4.319,0,0,1-.862-.235,6.227,6.227,0,0,1-2.154-1.371,6.03,6.03,0,0,1-1.841-4.347v-.157a6.022,6.022,0,0,0,2.742.744v-.039a5.065,5.065,0,0,1-1.253-1.1,6.023,6.023,0,0,1-1.449-3.838v-.235a6.26,6.26,0,0,1,.822-2.977q.627.744,1.41,1.527a22.435,22.435,0,0,0,2.663,2.154,20.238,20.238,0,0,0,2.977,1.527,21.857,21.857,0,0,0,2.937.9,21.64,21.64,0,0,0,2.663.313h.039a6.394,6.394,0,0,1-.157-1.292Z" transform="translate(-5393.358 -1393.95)"/>
  </g>
</svg>
