<svg xmlns="http://www.w3.org/2000/svg" xmlns:xlink="http://www.w3.org/1999/xlink" viewBox="-2395 -1558 66.31 62.33"><defs><style>.a{clip-path:url(#b);}.b{fill:#1aded6;}</style><clipPath id="b"><rect x="-2395" y="-1558" width="66.31" height="62.33"/></clipPath></defs><g id="a" class="a"><g transform="translate(-2395.303 -1558.439)"><path class="b" d="M54.5,48.62l7.834,7.834Zm-25.1-10.4a14.7,14.7,0,0,1,14.7-14.7h0a14.7,14.7,0,1,1-14.7,14.7ZM44.1,29.4a8.82,8.82,0,1,0,8.82,8.82A8.82,8.82,0,0,0,44.1,29.4ZM17.641,52.923H0v-5.88H23.521v5.881Zm0-11.761H0v-5.88H23.521v5.88Zm0-11.761H0v-5.88H23.521V29.4h-5.88Zm0-11.76H0v-5.88H58.8v5.881Zm0-11.761H0V0H58.8V5.881Z" transform="translate(0)"/><rect class="b" width="16.46" height="5.986" transform="translate(54.675 46.456) rotate(45)"/></g></g></svg>