<svg xmlns="http://www.w3.org/2000/svg" xmlns:xlink="http://www.w3.org/1999/xlink" viewBox="-2457 -1558 48.61 62.46"><defs><style>.a{clip-path:url(#b);}.b{fill:#1aded6;}</style><clipPath id="b"><rect x="-2457" y="-1558" width="48.61" height="62.46"/></clipPath></defs><g id="a" class="a"><path class="b" d="M29.952,62.136H3.99a4,4,0,0,1-3.99-4V3.99A4,4,0,0,1,3.99,0H30.009a4,4,0,0,1,3.971,4.02V24.408a5.606,5.606,0,0,0-1.572.854,4.531,4.531,0,0,0-.466.388A5.409,5.409,0,0,0,30,26.214v-15.1H3.932V49.194h18.68a34.119,34.119,0,0,0,11.369,4.981v3.961a4,4,0,0,1-4,4ZM14.584,52.9a3.34,3.34,0,1,0,2.386-.964h-.039A3.34,3.34,0,0,0,14.584,52.9ZM13.019,5.466a.971.971,0,0,0,.971.971h5.952a.971.971,0,0,0,0-1.942H13.99A.971.971,0,0,0,13.019,5.466ZM37.864,50.777a16.164,16.164,0,0,1-3.883-.592A27.234,27.234,0,0,1,30,48.845,36.545,36.545,0,0,1,23.709,45.3c-3.66-2.544-2.2-4.214-.165-4.214a3.955,3.955,0,0,1,2.087.6,9.057,9.057,0,0,0,2.4,1.039h.233c.573,0,.641-.544.213-1.107L18.69,28.466c-.922-1.3-.922-2.884,0-3.573a1.689,1.689,0,0,1,1.029-.321A3.184,3.184,0,0,1,22.1,25.884l.738.971c3.116,4.184,4.883,6.553,5.058,6.8a3.389,3.389,0,0,1,0-.456,1.942,1.942,0,0,1,.67-1.728,1.7,1.7,0,0,1,.971-.32,1.823,1.823,0,0,1,.505.068,2.563,2.563,0,0,1,.825.33v-.262a1.814,1.814,0,0,1,.679-1.447,1.638,1.638,0,0,1,.971-.33,2.522,2.522,0,0,1,.854.165,1.382,1.382,0,0,1,.544.175h.068a1.854,1.854,0,0,1,.757-1.475,1.7,1.7,0,0,1,1.029-.33,2.911,2.911,0,0,1,1.709.65v-.233a1.776,1.776,0,0,1,.66-1.223,1.659,1.659,0,0,1,1.029-.321,3.2,3.2,0,0,1,2.378,1.311l1.243,1.66c5,6.65,5.35,10.4,5.825,12.621l-.029.146a1.707,1.707,0,0,1-.243.971,14.5,14.5,0,0,1-4.136,4.33,13.685,13.685,0,0,1-5.515,2.767,4.458,4.458,0,0,1-.728.06Z" transform="translate(-2456.539 -1557.676)"/></g></svg>