<svg xmlns="http://www.w3.org/2000/svg" xmlns:xlink="http://www.w3.org/1999/xlink" viewBox="-2323 -1558 74.1 62.75"><defs><style>.a{clip-path:url(#b);}.b{fill:#fff;stroke:#19ded6;stroke-width:4px;}</style><clipPath id="b"><rect x="-2323" y="-1558" width="74.1" height="62.75"/></clipPath></defs><g id="a" class="a"><path class="b" d="M2331.273,1578.719H2329a6,6,0,0,1-6-6V1564a6,6,0,0,1,6-6h25.517a6,6,0,0,1,6,6v8.718a6,6,0,0,1-6,6h-16.053l-7.191,9.383Z" transform="translate(-4638.695 -3090.411)"/><path class="b" d="M2340.329,1574.28H2327a4,4,0,0,1-4-4V1562a4,4,0,0,1,4-4h21.48a4,4,0,0,1,4,4v8.28a4,4,0,0,1-4,4h-2.5v7.374Z" transform="translate(-4609.38 -3114.065)"/></g></svg>